solid Exported from Blender-2.90.1
facet normal 0.000000 -0.779297 -0.626655
outer loop
vertex 0.042683 -0.068334 -1.165000
vertex 0.118650 -0.068334 -1.165000
vertex 0.086830 -0.081200 -1.149000
endloop
endfacet
facet normal 0.684764 0.000000 0.728765
outer loop
vertex 0.245000 0.078334 0.919000
vertex 0.068333 0.018334 1.085000
vertex 0.068333 -0.118333 1.085000
endloop
endfacet
facet normal 0.721216 -0.065823 0.689576
outer loop
vertex 0.245000 0.078334 0.919000
vertex 0.068333 -0.118333 1.085000
vertex 0.245000 -0.068333 0.905000
endloop
endfacet
facet normal 0.021692 0.823969 -0.566219
outer loop
vertex 0.118650 -0.016667 -1.165000
vertex 0.042683 -0.014667 -1.165000
vertex 0.042683 0.030000 -1.100000
endloop
endfacet
facet normal 0.282769 0.904596 -0.318979
outer loop
vertex 0.118650 -0.016667 -1.165000
vertex 0.042683 0.030000 -1.100000
vertex 0.086830 0.016200 -1.100000
endloop
endfacet
facet normal 0.983800 0.000000 0.179270
outer loop
vertex 0.035533 -0.092583 1.265000
vertex 0.068333 -0.118333 1.085000
vertex 0.068333 0.018334 1.085000
endloop
endfacet
facet normal 0.481361 0.524867 0.702002
outer loop
vertex 0.171000 0.146200 0.919000
vertex 0.068333 0.018334 1.085000
vertex 0.245000 0.078334 0.919000
endloop
endfacet
facet normal 0.364900 -0.910612 0.193991
outer loop
vertex 0.068333 -0.175000 0.819000
vertex 0.206000 -0.106200 0.883000
vertex 0.068333 -0.118333 1.085000
endloop
endfacet
facet normal 1.000000 0.000000 0.000000
outer loop
vertex 0.245000 0.098816 0.514406
vertex 0.245000 0.078334 0.919000
vertex 0.245000 -0.068333 0.905000
endloop
endfacet
facet normal 1.000000 0.000000 -0.000000
outer loop
vertex 0.245000 0.098816 0.514406
vertex 0.245000 -0.068333 0.905000
vertex 0.245000 -0.068333 0.569471
endloop
endfacet
facet normal 0.664342 0.724388 0.184155
outer loop
vertex 0.171000 0.256683 0.484406
vertex 0.171000 0.146200 0.919000
vertex 0.245000 0.078334 0.919000
endloop
endfacet
facet normal 0.903659 0.427704 0.021652
outer loop
vertex 0.171000 0.256683 0.484406
vertex 0.245000 0.078334 0.919000
vertex 0.245000 0.098816 0.514406
endloop
endfacet
facet normal 0.576990 0.802681 0.150952
outer loop
vertex 0.028333 0.330483 0.484406
vertex 0.068333 0.220000 0.919000
vertex 0.171000 0.146200 0.919000
endloop
endfacet
facet normal 0.448172 0.866389 0.220254
outer loop
vertex 0.028333 0.330483 0.484406
vertex 0.171000 0.146200 0.919000
vertex 0.171000 0.256683 0.484406
endloop
endfacet
facet normal 0.443925 -0.895988 0.011674
outer loop
vertex 0.171000 -0.131200 -0.033989
vertex 0.206000 -0.106200 0.553858
vertex 0.068333 -0.175000 0.508440
endloop
endfacet
facet normal 0.392404 -0.919793 0.000000
outer loop
vertex 0.171000 -0.131200 -0.033989
vertex 0.068333 -0.175000 0.508440
vertex 0.068333 -0.175000 -0.065166
endloop
endfacet
facet normal 0.647959 -0.761650 -0.006187
outer loop
vertex 0.245000 -0.068333 -0.023272
vertex 0.206000 -0.106200 0.553858
vertex 0.171000 -0.131200 -0.033989
endloop
endfacet
facet normal 1.000000 0.000000 -0.000000
outer loop
vertex 0.245000 0.093200 -0.016452
vertex 0.245000 -0.068333 0.569471
vertex 0.245000 -0.068333 -0.023272
endloop
endfacet
facet normal 0.905796 0.423689 -0.004751
outer loop
vertex 0.171000 0.251067 -0.016452
vertex 0.171000 0.256683 0.484406
vertex 0.245000 0.098816 0.514406
endloop
endfacet
facet normal 0.998463 0.055421 -0.000621
outer loop
vertex 0.013333 0.595483 0.017062
vertex 0.028333 0.330483 0.484406
vertex 0.028333 0.324867 -0.016452
endloop
endfacet
facet normal 0.998433 0.055821 -0.003862
outer loop
vertex 0.013333 0.595483 0.017062
vertex 0.028333 0.324867 -0.016452
vertex 0.013333 0.589867 -0.064109
endloop
endfacet
facet normal 0.041001 0.994530 -0.096064
outer loop
vertex 0.388650 -0.054527 -1.430000
vertex 0.042683 -0.031957 -1.344000
vertex 0.042683 -0.014667 -1.165000
endloop
endfacet
facet normal 0.700467 0.000000 0.713684
outer loop
vertex 0.388650 -0.054527 -1.430000
vertex 0.118650 -0.016667 -1.165000
vertex 0.118650 -0.068334 -1.165000
endloop
endfacet
facet normal 0.000000 -0.997774 0.066681
outer loop
vertex 0.388650 -0.086044 -1.430000
vertex 0.118650 -0.068334 -1.165000
vertex 0.042683 -0.068334 -1.165000
endloop
endfacet
facet normal -0.066604 -0.997573 -0.020286
outer loop
vertex 0.388650 -0.086044 -1.430000
vertex 0.042683 -0.068334 -1.165000
vertex 0.042683 -0.064694 -1.344000
endloop
endfacet
facet normal -0.136077 0.494179 -0.858645
outer loop
vertex 0.386000 -0.291200 0.418858
vertex 0.206000 -0.106200 0.553858
vertex 0.245000 -0.068333 0.569471
endloop
endfacet
facet normal 0.802462 0.596703 -0.000000
outer loop
vertex 0.390000 -0.263333 0.434471
vertex 0.245000 -0.068333 0.569471
vertex 0.245000 -0.068333 0.905000
endloop
endfacet
facet normal 0.391897 -0.729389 0.560720
outer loop
vertex 0.390000 -0.263333 0.550000
vertex 0.245000 -0.068333 0.905000
vertex 0.206000 -0.106200 0.883000
endloop
endfacet
facet normal 0.594343 -0.549147 0.587533
outer loop
vertex 0.390000 -0.263333 0.550000
vertex 0.206000 -0.106200 0.883000
vertex 0.386000 -0.291200 0.528000
endloop
endfacet
facet normal -0.716725 -0.697356 0.000000
outer loop
vertex 0.386000 -0.291200 0.528000
vertex 0.206000 -0.106200 0.553858
vertex 0.386000 -0.291200 0.418858
endloop
endfacet
facet normal 0.000000 -0.779296 -0.626656
outer loop
vertex -0.042683 -0.068334 -1.165000
vertex -0.086830 -0.081200 -1.149000
vertex -0.118650 -0.068334 -1.165000
endloop
endfacet
facet normal -0.983800 -0.000000 0.179270
outer loop
vertex -0.035533 -0.092583 1.265000
vertex -0.035533 -0.037416 1.265000
vertex -0.068333 0.018334 1.085000
endloop
endfacet
facet normal -0.364900 -0.910613 0.193991
outer loop
vertex -0.068333 -0.175000 0.819000
vertex -0.068333 -0.118333 1.085000
vertex -0.206000 -0.106200 0.883000
endloop
endfacet
facet normal -1.000000 -0.000000 -0.000000
outer loop
vertex -0.245000 0.098816 0.514406
vertex -0.245000 -0.068333 0.905000
vertex -0.245000 0.078334 0.919000
endloop
endfacet
facet normal -0.903660 0.427704 0.021652
outer loop
vertex -0.171000 0.256683 0.484406
vertex -0.245000 0.098816 0.514406
vertex -0.245000 0.078334 0.919000
endloop
endfacet
facet normal -0.664342 0.724387 0.184155
outer loop
vertex -0.171000 0.256683 0.484406
vertex -0.245000 0.078334 0.919000
vertex -0.171000 0.146200 0.919000
endloop
endfacet
facet normal -0.443924 -0.895988 0.011674
outer loop
vertex -0.171000 -0.131200 -0.033989
vertex -0.068333 -0.175000 0.508440
vertex -0.206000 -0.106200 0.553858
endloop
endfacet
facet normal -0.647959 -0.761650 -0.006187
outer loop
vertex -0.245000 -0.068333 -0.023272
vertex -0.171000 -0.131200 -0.033989
vertex -0.206000 -0.106200 0.553858
endloop
endfacet
facet normal -0.696609 -0.717452 0.000000
outer loop
vertex -0.245000 -0.068333 -0.023272
vertex -0.206000 -0.106200 0.553858
vertex -0.245000 -0.068333 0.569470
endloop
endfacet
facet normal -1.000000 -0.000001 0.000000
outer loop
vertex -0.245000 -0.068333 0.569470
vertex -0.245000 0.098816 0.514406
vertex -0.245000 0.093200 -0.016452
endloop
endfacet
facet normal -0.905796 0.423688 -0.004751
outer loop
vertex -0.245000 0.098816 0.514406
vertex -0.171000 0.256683 0.484406
vertex -0.171000 0.251067 -0.016452
endloop
endfacet
facet normal -0.459433 0.888156 -0.009959
outer loop
vertex -0.028333 0.324867 -0.016452
vertex -0.171000 0.251067 -0.016452
vertex -0.171000 0.256683 0.484406
endloop
endfacet
facet normal -0.459433 0.888156 -0.009959
outer loop
vertex -0.028333 0.324867 -0.016452
vertex -0.171000 0.256683 0.484406
vertex -0.028333 0.330483 0.484406
endloop
endfacet
facet normal -0.998724 0.050384 -0.003486
outer loop
vertex -0.028333 0.330483 0.484406
vertex -0.013333 0.595483 0.017062
vertex -0.013333 0.589867 -0.064109
endloop
endfacet
facet normal -0.700468 0.000000 0.713684
outer loop
vertex -0.118650 -0.068334 -1.165000
vertex -0.118650 -0.016667 -1.165000
vertex -0.388650 -0.054527 -1.430000
endloop
endfacet
facet normal -0.700468 0.000000 0.713684
outer loop
vertex -0.118650 -0.068334 -1.165000
vertex -0.388650 -0.054527 -1.430000
vertex -0.388650 -0.086044 -1.430000
endloop
endfacet
facet normal 0.066604 -0.997573 -0.020286
outer loop
vertex -0.388650 -0.086044 -1.430000
vertex -0.042683 -0.064694 -1.344000
vertex -0.042683 -0.068334 -1.165000
endloop
endfacet
facet normal 0.241238 0.000000 -0.970466
outer loop
vertex -0.042683 -0.031957 -1.344000
vertex -0.042683 -0.064694 -1.344000
vertex -0.388650 -0.086044 -1.430000
endloop
endfacet
facet normal 0.241237 0.000000 -0.970466
outer loop
vertex -0.042683 -0.031957 -1.344000
vertex -0.388650 -0.086044 -1.430000
vertex -0.388650 -0.054527 -1.430000
endloop
endfacet
facet normal 0.136091 0.494169 -0.858648
outer loop
vertex -0.386000 -0.291200 0.418858
vertex -0.245000 -0.068333 0.569470
vertex -0.206000 -0.106200 0.553858
endloop
endfacet
facet normal -0.802462 0.596703 -0.000000
outer loop
vertex -0.245000 -0.068333 0.905000
vertex -0.390000 -0.263333 0.434471
vertex -0.390000 -0.263333 0.550000
endloop
endfacet
facet normal -0.594343 -0.549147 0.587533
outer loop
vertex -0.390000 -0.263333 0.550000
vertex -0.386000 -0.291200 0.528000
vertex -0.206000 -0.106200 0.883000
endloop
endfacet
facet normal -0.989855 -0.142082 0.000000
outer loop
vertex -0.390000 -0.263333 0.434471
vertex -0.386000 -0.291200 0.528000
vertex -0.390000 -0.263333 0.550000
endloop
endfacet
facet normal 0.000000 0.969172 0.246384
outer loop
vertex 0.068333 0.220000 0.919000
vertex 0.028333 0.330483 0.484406
vertex -0.000000 0.330483 0.484406
endloop
endfacet
facet normal -0.000001 0.969172 0.246384
outer loop
vertex 0.068333 0.220000 0.919000
vertex -0.000000 0.330483 0.484406
vertex -0.028333 0.330483 0.484406
endloop
endfacet
facet normal 0.000001 0.000000 1.000000
outer loop
vertex -0.035533 -0.037416 1.265000
vertex -0.035533 -0.092583 1.265000
vertex 0.035533 -0.092583 1.265000
endloop
endfacet
facet normal 0.000000 0.955232 0.295857
outer loop
vertex 0.068333 0.018334 1.085000
vertex -0.068333 0.018334 1.085000
vertex -0.035533 -0.037416 1.265000
endloop
endfacet
facet normal -0.000001 0.955232 0.295857
outer loop
vertex 0.068333 0.018334 1.085000
vertex -0.035533 -0.037416 1.265000
vertex 0.035533 -0.037416 1.265000
endloop
endfacet
facet normal 0.000000 0.824163 -0.566353
outer loop
vertex 0.042683 0.030000 -1.100000
vertex 0.042683 -0.014667 -1.165000
vertex -0.042683 -0.014667 -1.165000
endloop
endfacet
facet normal -0.000001 0.635530 0.772077
outer loop
vertex 0.068333 0.018334 1.085000
vertex 0.068333 0.220000 0.919000
vertex -0.068333 0.220000 0.919000
endloop
endfacet
facet normal 0.000008 -0.737168 -0.675710
outer loop
vertex 0.042683 -0.068334 -1.165000
vertex 0.042683 -0.105000 -1.124999
vertex -0.042683 -0.105000 -1.125000
endloop
endfacet
facet normal -0.000002 -0.737160 -0.675718
outer loop
vertex 0.042683 -0.068334 -1.165000
vertex -0.042683 -0.105000 -1.125000
vertex -0.042683 -0.068334 -1.165000
endloop
endfacet
facet normal 0.000000 -0.176998 -0.984211
outer loop
vertex 0.028333 0.324867 -0.016452
vertex -0.028333 0.324867 -0.016452
vertex -0.013333 0.589867 -0.064109
endloop
endfacet
facet normal 0.000000 -0.176998 -0.984211
outer loop
vertex 0.028333 0.324867 -0.016452
vertex -0.013333 0.589867 -0.064109
vertex 0.013333 0.589867 -0.064109
endloop
endfacet
facet normal 0.000000 -0.989922 0.141614
outer loop
vertex -0.068333 -0.118333 1.085000
vertex 0.068333 -0.118333 1.085000
vertex 0.035533 -0.092583 1.265000
endloop
endfacet
facet normal 0.000000 -0.989922 0.141614
outer loop
vertex -0.068333 -0.118333 1.085000
vertex 0.035533 -0.092583 1.265000
vertex -0.035533 -0.092583 1.265000
endloop
endfacet
facet normal 0.000000 -1.000000 0.000000
outer loop
vertex -0.068333 -0.175000 0.819000
vertex 0.068333 -0.175000 0.508440
vertex 0.068333 -0.175000 0.819000
endloop
endfacet
facet normal 0.000000 -1.000000 0.000000
outer loop
vertex -0.068333 -0.175000 0.508440
vertex 0.068333 -0.175000 -0.065166
vertex 0.068333 -0.175000 0.508440
endloop
endfacet
facet normal 0.000000 0.997615 -0.069022
outer loop
vertex -0.013333 0.589867 -0.064109
vertex 0.013333 0.595483 0.017062
vertex 0.013333 0.589867 -0.064109
endloop
endfacet
facet normal 0.000000 0.000000 -1.000000
outer loop
vertex -0.042683 -0.031957 -1.344000
vertex 0.042683 -0.031957 -1.344000
vertex -0.042683 -0.064694 -1.344000
endloop
endfacet
facet normal 0.000001 0.000000 -1.000000
outer loop
vertex 0.042683 -0.031957 -1.344000
vertex 0.042683 -0.064694 -1.344000
vertex -0.042683 -0.064694 -1.344000
endloop
endfacet
facet normal 0.652172 -0.753511 -0.083021
outer loop
vertex 0.245000 -0.068333 -0.023272
vertex 0.171000 -0.131200 -0.033989
vertex 0.086830 -0.081200 -1.149000
endloop
endfacet
facet normal 0.357405 -0.933112 -0.039552
outer loop
vertex 0.245000 -0.068333 -0.023272
vertex 0.086830 -0.081200 -1.149000
vertex 0.118650 -0.068334 -1.165000
endloop
endfacet
facet normal -0.357404 -0.933112 -0.039552
outer loop
vertex -0.245000 -0.068333 -0.023272
vertex -0.118650 -0.068334 -1.165000
vertex -0.086830 -0.081200 -1.149000
endloop
endfacet
facet normal -0.000000 0.964910 -0.262582
outer loop
vertex 0.028333 0.324867 -0.016452
vertex 0.042683 0.030000 -1.100000
vertex -0.042683 0.030000 -1.100000
endloop
endfacet
facet normal -0.993922 0.004643 -0.109993
outer loop
vertex -0.245000 0.093200 -0.016452
vertex -0.118650 -0.068334 -1.165000
vertex -0.245000 -0.068333 -0.023272
endloop
endfacet
facet normal 0.993922 0.004644 -0.109993
outer loop
vertex 0.245000 0.093200 -0.016452
vertex 0.245000 -0.068333 -0.023272
vertex 0.118650 -0.068334 -1.165000
endloop
endfacet
facet normal 0.994004 0.000000 -0.109349
outer loop
vertex 0.245000 0.093200 -0.016452
vertex 0.118650 -0.068334 -1.165000
vertex 0.118650 -0.016667 -1.165000
endloop
endfacet
facet normal -0.558938 0.817361 -0.139674
outer loop
vertex -0.245000 0.093200 -0.016452
vertex -0.086830 0.016200 -1.100000
vertex -0.118650 -0.016667 -1.165000
endloop
endfacet
facet normal 0.000001 -0.997826 -0.065904
outer loop
vertex 0.068333 -0.175000 -0.065166
vertex -0.042683 -0.105000 -1.125000
vertex 0.042683 -0.105000 -1.124999
endloop
endfacet
facet normal 0.893759 0.418949 -0.160237
outer loop
vertex 0.245000 0.093200 -0.016452
vertex 0.086830 0.016200 -1.100000
vertex 0.171000 0.251067 -0.016452
endloop
endfacet
facet normal -0.289049 0.924685 -0.247807
outer loop
vertex -0.028333 0.324867 -0.016452
vertex -0.042683 0.030000 -1.100000
vertex -0.086830 0.016200 -1.100000
endloop
endfacet
facet normal -0.447939 0.865937 -0.222494
outer loop
vertex -0.028333 0.324867 -0.016452
vertex -0.086830 0.016200 -1.100000
vertex -0.171000 0.251067 -0.016452
endloop
endfacet
facet normal 0.447939 0.865937 -0.222494
outer loop
vertex 0.028333 0.324867 -0.016452
vertex 0.171000 0.251067 -0.016452
vertex 0.086830 0.016200 -1.100000
endloop
endfacet
facet normal -0.000000 0.995367 -0.096145
outer loop
vertex -0.042683 -0.014667 -1.165000
vertex 0.042683 -0.014667 -1.165000
vertex 0.042683 -0.031957 -1.344000
endloop
endfacet
facet normal -0.000000 0.995367 -0.096145
outer loop
vertex -0.042683 -0.014667 -1.165000
vertex 0.042683 -0.031957 -1.344000
vertex -0.042683 -0.031957 -1.344000
endloop
endfacet
facet normal 0.030042 -0.736835 -0.675404
outer loop
vertex 0.042683 -0.068334 -1.165000
vertex 0.086830 -0.081200 -1.149000
vertex 0.042683 -0.105000 -1.124999
endloop
endfacet
facet normal 0.983800 0.000000 0.179270
outer loop
vertex 0.035533 -0.092583 1.265000
vertex 0.068333 0.018334 1.085000
vertex 0.035533 -0.037416 1.265000
endloop
endfacet
facet normal 0.415529 0.578065 0.702265
outer loop
vertex 0.068333 0.220000 0.919000
vertex 0.068333 0.018334 1.085000
vertex 0.171000 0.146200 0.919000
endloop
endfacet
facet normal 0.554119 -0.763459 0.331786
outer loop
vertex 0.245000 -0.068333 0.905000
vertex 0.068333 -0.118333 1.085000
vertex 0.206000 -0.106200 0.883000
endloop
endfacet
facet normal 0.447040 -0.894514 0.000000
outer loop
vertex 0.206000 -0.106200 0.553858
vertex 0.206000 -0.106200 0.883000
vertex 0.068333 -0.175000 0.819000
endloop
endfacet
facet normal 0.447040 -0.894514 0.000000
outer loop
vertex 0.206000 -0.106200 0.553858
vertex 0.068333 -0.175000 0.819000
vertex 0.068333 -0.175000 0.508440
endloop
endfacet
facet normal 0.696609 -0.717451 0.000000
outer loop
vertex 0.245000 -0.068333 -0.023272
vertex 0.245000 -0.068333 0.569471
vertex 0.206000 -0.106200 0.553858
endloop
endfacet
facet normal 1.000000 0.000000 -0.000000
outer loop
vertex 0.245000 0.093200 -0.016452
vertex 0.245000 0.098816 0.514406
vertex 0.245000 -0.068333 0.569471
endloop
endfacet
facet normal 0.905450 0.424429 -0.004490
outer loop
vertex 0.171000 0.251067 -0.016452
vertex 0.245000 0.098816 0.514406
vertex 0.245000 0.093200 -0.016452
endloop
endfacet
facet normal 0.459433 0.888157 -0.009959
outer loop
vertex 0.028333 0.324867 -0.016452
vertex 0.028333 0.330483 0.484406
vertex 0.171000 0.256683 0.484406
endloop
endfacet
facet normal 0.459433 0.888157 -0.009959
outer loop
vertex 0.028333 0.324867 -0.016452
vertex 0.171000 0.256683 0.484406
vertex 0.171000 0.251067 -0.016452
endloop
endfacet
facet normal 0.026142 0.992995 -0.115231
outer loop
vertex 0.388650 -0.054527 -1.430000
vertex 0.042683 -0.014667 -1.165000
vertex 0.118650 -0.016667 -1.165000
endloop
endfacet
facet normal 0.700468 0.000000 0.713684
outer loop
vertex 0.388650 -0.054527 -1.430000
vertex 0.118650 -0.068334 -1.165000
vertex 0.388650 -0.086044 -1.430000
endloop
endfacet
facet normal -0.241237 0.000000 -0.970466
outer loop
vertex 0.042683 -0.031957 -1.344000
vertex 0.388650 -0.054527 -1.430000
vertex 0.388650 -0.086044 -1.430000
endloop
endfacet
facet normal -0.241237 -0.000000 -0.970466
outer loop
vertex 0.042683 -0.031957 -1.344000
vertex 0.388650 -0.086044 -1.430000
vertex 0.042683 -0.064694 -1.344000
endloop
endfacet
facet normal -0.127606 0.498664 -0.857351
outer loop
vertex 0.386000 -0.291200 0.418858
vertex 0.245000 -0.068333 0.569471
vertex 0.390000 -0.263333 0.434471
endloop
endfacet
facet normal 0.802462 0.596703 0.000000
outer loop
vertex 0.390000 -0.263333 0.434471
vertex 0.245000 -0.068333 0.905000
vertex 0.390000 -0.263333 0.550000
endloop
endfacet
facet normal -0.716726 -0.697355 0.000000
outer loop
vertex 0.386000 -0.291200 0.528000
vertex 0.206000 -0.106200 0.883000
vertex 0.206000 -0.106200 0.553858
endloop
endfacet
facet normal 0.989855 -0.142084 0.000000
outer loop
vertex 0.390000 -0.263333 0.434471
vertex 0.390000 -0.263333 0.550000
vertex 0.386000 -0.291200 0.528000
endloop
endfacet
facet normal 0.989855 -0.142080 0.000000
outer loop
vertex 0.390000 -0.263333 0.434471
vertex 0.386000 -0.291200 0.528000
vertex 0.386000 -0.291200 0.418858
endloop
endfacet
facet normal -0.030045 -0.736827 -0.675413
outer loop
vertex -0.042683 -0.068334 -1.165000
vertex -0.042683 -0.105000 -1.125000
vertex -0.086830 -0.081200 -1.149000
endloop
endfacet
facet normal -0.721216 -0.065824 0.689576
outer loop
vertex -0.245000 0.078334 0.919000
vertex -0.245000 -0.068333 0.905000
vertex -0.068333 -0.118333 1.085000
endloop
endfacet
facet normal -0.684764 -0.000000 0.728765
outer loop
vertex -0.245000 0.078334 0.919000
vertex -0.068333 -0.118333 1.085000
vertex -0.068333 0.018334 1.085000
endloop
endfacet
facet normal -0.023609 0.896760 -0.441886
outer loop
vertex -0.042683 -0.014667 -1.165000
vertex -0.118650 -0.016667 -1.165000
vertex -0.086830 0.016200 -1.100000
endloop
endfacet
facet normal -0.249481 0.798103 -0.548445
outer loop
vertex -0.042683 -0.014667 -1.165000
vertex -0.086830 0.016200 -1.100000
vertex -0.042683 0.030000 -1.100000
endloop
endfacet
facet normal -0.983800 -0.000000 0.179270
outer loop
vertex -0.035533 -0.092583 1.265000
vertex -0.068333 0.018334 1.085000
vertex -0.068333 -0.118333 1.085000
endloop
endfacet
facet normal -0.415529 0.578065 0.702265
outer loop
vertex -0.068333 0.220000 0.919000
vertex -0.171000 0.146200 0.919000
vertex -0.068333 0.018334 1.085000
endloop
endfacet
facet normal -0.481360 0.524867 0.702002
outer loop
vertex -0.171000 0.146200 0.919000
vertex -0.245000 0.078334 0.919000
vertex -0.068333 0.018334 1.085000
endloop
endfacet
facet normal -0.554119 -0.763459 0.331786
outer loop
vertex -0.245000 -0.068333 0.905000
vertex -0.206000 -0.106200 0.883000
vertex -0.068333 -0.118333 1.085000
endloop
endfacet
facet normal -0.447039 -0.894514 0.000000
outer loop
vertex -0.206000 -0.106200 0.553858
vertex -0.068333 -0.175000 0.508440
vertex -0.068333 -0.175000 0.819000
endloop
endfacet
facet normal -0.447039 -0.894514 0.000000
outer loop
vertex -0.206000 -0.106200 0.553858
vertex -0.068333 -0.175000 0.819000
vertex -0.206000 -0.106200 0.883000
endloop
endfacet
facet normal -1.000000 -0.000000 0.000000
outer loop
vertex -0.245000 0.098816 0.514406
vertex -0.245000 -0.068333 0.569470
vertex -0.245000 -0.068333 0.905000
endloop
endfacet
facet normal -0.448173 0.866388 0.220254
outer loop
vertex -0.028333 0.330483 0.484406
vertex -0.171000 0.256683 0.484406
vertex -0.171000 0.146200 0.919000
endloop
endfacet
facet normal -0.576990 0.802680 0.150952
outer loop
vertex -0.028333 0.330483 0.484406
vertex -0.171000 0.146200 0.919000
vertex -0.068333 0.220000 0.919000
endloop
endfacet
facet normal -0.392404 -0.919793 0.000000
outer loop
vertex -0.171000 -0.131200 -0.033989
vertex -0.068333 -0.175000 -0.065166
vertex -0.068333 -0.175000 0.508440
endloop
endfacet
facet normal -1.000000 -0.000000 0.000000
outer loop
vertex -0.245000 -0.068333 0.569470
vertex -0.245000 0.093200 -0.016452
vertex -0.245000 -0.068333 -0.023272
endloop
endfacet
facet normal -0.905450 0.424429 -0.004490
outer loop
vertex -0.245000 0.098816 0.514406
vertex -0.171000 0.251067 -0.016452
vertex -0.245000 0.093200 -0.016452
endloop
endfacet
facet normal -0.998408 0.056400 -0.000632
outer loop
vertex -0.028333 0.330483 0.484406
vertex -0.013333 0.589867 -0.064109
vertex -0.028333 0.324867 -0.016452
endloop
endfacet
facet normal -0.026143 0.992995 -0.115231
outer loop
vertex -0.388650 -0.054527 -1.430000
vertex -0.118650 -0.016667 -1.165000
vertex -0.042683 -0.014667 -1.165000
endloop
endfacet
facet normal -0.041001 0.994530 -0.096064
outer loop
vertex -0.388650 -0.054527 -1.430000
vertex -0.042683 -0.014667 -1.165000
vertex -0.042683 -0.031957 -1.344000
endloop
endfacet
facet normal 0.000000 -0.997774 0.066682
outer loop
vertex -0.388650 -0.086044 -1.430000
vertex -0.042683 -0.068334 -1.165000
vertex -0.118650 -0.068334 -1.165000
endloop
endfacet
facet normal 0.127599 0.498663 -0.857353
outer loop
vertex -0.386000 -0.291200 0.418858
vertex -0.390000 -0.263333 0.434471
vertex -0.245000 -0.068333 0.569470
endloop
endfacet
facet normal -0.802462 0.596703 -0.000000
outer loop
vertex -0.245000 -0.068333 0.905000
vertex -0.245000 -0.068333 0.569470
vertex -0.390000 -0.263333 0.434471
endloop
endfacet
facet normal -0.391897 -0.729390 0.560721
outer loop
vertex -0.390000 -0.263333 0.550000
vertex -0.206000 -0.106200 0.883000
vertex -0.245000 -0.068333 0.905000
endloop
endfacet
facet normal 0.716726 -0.697355 0.000000
outer loop
vertex -0.386000 -0.291200 0.528000
vertex -0.386000 -0.291200 0.418858
vertex -0.206000 -0.106200 0.553858
endloop
endfacet
facet normal 0.716726 -0.697355 0.000000
outer loop
vertex -0.386000 -0.291200 0.528000
vertex -0.206000 -0.106200 0.553858
vertex -0.206000 -0.106200 0.883000
endloop
endfacet
facet normal -0.989855 -0.142082 0.000000
outer loop
vertex -0.390000 -0.263333 0.434471
vertex -0.386000 -0.291200 0.418858
vertex -0.386000 -0.291200 0.528000
endloop
endfacet
facet normal -0.000000 0.969172 0.246384
outer loop
vertex -0.028333 0.330483 0.484406
vertex -0.068333 0.220000 0.919000
vertex 0.068333 0.220000 0.919000
endloop
endfacet
facet normal 0.000000 0.000000 1.000000
outer loop
vertex -0.035533 -0.037416 1.265000
vertex 0.035533 -0.092583 1.265000
vertex 0.035533 -0.037416 1.265000
endloop
endfacet
facet normal -0.000001 0.824163 -0.566353
outer loop
vertex 0.042683 0.030000 -1.100000
vertex -0.042683 -0.014667 -1.165000
vertex -0.042683 0.030000 -1.100000
endloop
endfacet
facet normal 0.000000 0.635530 0.772076
outer loop
vertex 0.068333 0.018334 1.085000
vertex -0.068333 0.220000 0.919000
vertex -0.068333 0.018334 1.085000
endloop
endfacet
facet normal 0.000000 -0.978052 0.208358
outer loop
vertex 0.068333 -0.175000 0.819000
vertex 0.068333 -0.118333 1.085000
vertex -0.068333 -0.118333 1.085000
endloop
endfacet
facet normal 0.000000 -0.978053 0.208358
outer loop
vertex 0.068333 -0.175000 0.819000
vertex -0.068333 -0.118333 1.085000
vertex -0.068333 -0.175000 0.819000
endloop
endfacet
facet normal 0.000000 -0.999793 -0.020331
outer loop
vertex 0.042683 -0.064694 -1.344000
vertex 0.042683 -0.068334 -1.165000
vertex -0.042683 -0.068334 -1.165000
endloop
endfacet
facet normal 0.000000 -0.999793 -0.020331
outer loop
vertex 0.042683 -0.064694 -1.344000
vertex -0.042683 -0.068334 -1.165000
vertex -0.042683 -0.064694 -1.344000
endloop
endfacet
facet normal 0.000000 -1.000000 0.000000
outer loop
vertex -0.068333 -0.175000 0.819000
vertex -0.068333 -0.175000 0.508440
vertex 0.068333 -0.175000 0.508440
endloop
endfacet
facet normal 0.000000 -1.000000 0.000000
outer loop
vertex -0.068333 -0.175000 0.508440
vertex -0.068333 -0.175000 -0.065166
vertex 0.068333 -0.175000 -0.065166
endloop
endfacet
facet normal -0.000000 0.869885 0.493255
outer loop
vertex -0.028333 0.330483 0.484406
vertex 0.028333 0.330483 0.484406
vertex -0.013333 0.595483 0.017062
endloop
endfacet
facet normal 0.000000 0.869885 0.493254
outer loop
vertex 0.013333 0.595483 0.017062
vertex -0.013333 0.595483 0.017062
vertex 0.028333 0.330483 0.484406
endloop
endfacet
facet normal 0.000000 0.997615 -0.069023
outer loop
vertex 0.013333 0.595483 0.017062
vertex -0.013333 0.589867 -0.064109
vertex -0.013333 0.595483 0.017062
endloop
endfacet
facet normal -0.442023 -0.893991 -0.073456
outer loop
vertex -0.171000 -0.131200 -0.033989
vertex -0.086830 -0.081200 -1.149000
vertex -0.042683 -0.105000 -1.125000
endloop
endfacet
facet normal -0.409347 -0.909690 -0.069990
outer loop
vertex -0.171000 -0.131200 -0.033989
vertex -0.042683 -0.105000 -1.125000
vertex -0.068333 -0.175000 -0.065166
endloop
endfacet
facet normal 0.409348 -0.909690 -0.069990
outer loop
vertex 0.171000 -0.131200 -0.033989
vertex 0.068333 -0.175000 -0.065166
vertex 0.042683 -0.105000 -1.124999
endloop
endfacet
facet normal 0.442023 -0.893991 -0.073456
outer loop
vertex 0.171000 -0.131200 -0.033989
vertex 0.042683 -0.105000 -1.124999
vertex 0.086830 -0.081200 -1.149000
endloop
endfacet
facet normal -0.652172 -0.753511 -0.083021
outer loop
vertex -0.245000 -0.068333 -0.023272
vertex -0.086830 -0.081200 -1.149000
vertex -0.171000 -0.131200 -0.033989
endloop
endfacet
facet normal 0.000000 0.964910 -0.262582
outer loop
vertex -0.042683 0.030000 -1.100000
vertex -0.028333 0.324867 -0.016452
vertex -0.000000 0.324867 -0.016452
endloop
endfacet
facet normal 0.000000 0.964910 -0.262582
outer loop
vertex -0.042683 0.030000 -1.100000
vertex -0.000000 0.324867 -0.016452
vertex 0.028333 0.324867 -0.016452
endloop
endfacet
facet normal -0.994003 0.000000 -0.109349
outer loop
vertex -0.245000 0.093200 -0.016452
vertex -0.118650 -0.016667 -1.165000
vertex -0.118650 -0.068334 -1.165000
endloop
endfacet
facet normal -0.893760 0.418949 -0.160237
outer loop
vertex -0.245000 0.093200 -0.016452
vertex -0.171000 0.251067 -0.016452
vertex -0.086830 0.016200 -1.100000
endloop
endfacet
facet normal 0.000000 -0.997826 -0.065904
outer loop
vertex 0.068333 -0.175000 -0.065166
vertex -0.068333 -0.175000 -0.065166
vertex -0.042683 -0.105000 -1.125000
endloop
endfacet
facet normal 0.558937 0.817362 -0.139675
outer loop
vertex 0.245000 0.093200 -0.016452
vertex 0.118650 -0.016667 -1.165000
vertex 0.086830 0.016200 -1.100000
endloop
endfacet
facet normal 0.289049 0.924685 -0.247807
outer loop
vertex 0.028333 0.324867 -0.016452
vertex 0.086830 0.016200 -1.100000
vertex 0.042683 0.030000 -1.100000
endloop
endfacet
endsolid Exported from Blender-2.90.1
